ply
format ascii 1.0
comment Created by Blender 2.66 (sub 1) - www.blender.org, source file: ''
element vertex 64
property float x
property float y
property float z
element face 124
property list uchar uint vertex_indices
end_header
0.000000 -0.499338 -0.037232
0.000000 0.499338 -0.037232
0.007307 0.499338 -0.036517
0.007307 -0.499338 -0.036517
0.014332 0.499338 -0.034398
0.014332 -0.499338 -0.034398
0.020807 0.499338 -0.030957
0.020807 -0.499338 -0.030957
0.026483 0.499338 -0.026327
0.026483 -0.499338 -0.026327
0.031140 0.499338 -0.020685
0.031140 -0.499338 -0.020685
0.034601 0.499338 -0.014248
0.034601 -0.499338 -0.014248
0.036732 0.499338 -0.007264
0.036732 -0.499338 -0.007264
0.037452 0.499338 -0.000000
0.037452 -0.499338 -0.000000
0.036732 0.499338 0.007264
0.036732 -0.499338 0.007264
0.034601 0.499338 0.014248
0.034601 -0.499338 0.014248
0.031140 0.499338 0.020685
0.031140 -0.499338 0.020685
0.026483 0.499338 0.026327
0.026483 -0.499338 0.026327
0.020807 0.499338 0.030957
0.020807 -0.499338 0.030957
0.014332 0.499338 0.034398
0.014332 -0.499338 0.034398
0.007307 0.499338 0.036517
0.007307 -0.499338 0.036517
-0.000000 0.499338 0.037232
-0.000000 -0.499338 0.037232
-0.007307 -0.499338 0.036516
-0.007307 0.499338 0.036516
-0.014332 -0.499338 0.034398
-0.014332 0.499338 0.034398
-0.020807 -0.499338 0.030957
-0.020807 0.499338 0.030957
-0.026483 -0.499338 0.026327
-0.026483 0.499338 0.026327
-0.031140 -0.499338 0.020685
-0.031140 0.499338 0.020685
-0.034601 -0.499338 0.014248
-0.034601 0.499338 0.014248
-0.036732 -0.499338 0.007264
-0.036732 0.499338 0.007264
-0.037452 -0.499338 -0.000000
-0.037452 0.499338 -0.000000
-0.036732 -0.499338 -0.007264
-0.036732 0.499338 -0.007264
-0.034601 -0.499338 -0.014248
-0.034601 0.499338 -0.014248
-0.031140 -0.499338 -0.020685
-0.031140 0.499338 -0.020685
-0.026483 -0.499338 -0.026327
-0.026483 0.499338 -0.026327
-0.020807 -0.499338 -0.030957
-0.020807 0.499338 -0.030957
-0.014332 -0.499338 -0.034398
-0.007306 0.499338 -0.036517
-0.007306 -0.499338 -0.036517
-0.014332 0.499338 -0.034398
3 0 1 2
3 3 2 4
3 5 4 6
3 7 6 8
3 9 8 10
3 11 10 12
3 13 12 14
3 15 14 16
3 17 16 18
3 19 18 20
3 21 20 22
3 23 22 24
3 25 24 26
3 27 26 28
3 29 28 30
3 31 30 32
3 33 32 34
3 34 35 36
3 36 37 38
3 38 39 40
3 40 41 42
3 42 43 44
3 44 45 46
3 46 47 48
3 48 49 50
3 50 51 52
3 52 53 54
3 54 55 56
3 56 57 58
3 58 59 60
3 2 1 4
3 61 0 62
3 60 63 62
3 0 3 62
3 3 0 2
3 5 3 4
3 7 5 6
3 9 7 8
3 11 9 10
3 13 11 12
3 15 13 14
3 17 15 16
3 19 17 18
3 21 19 20
3 23 21 22
3 25 23 24
3 27 25 26
3 29 27 28
3 31 29 30
3 33 31 32
3 32 35 34
3 35 37 36
3 37 39 38
3 39 41 40
3 41 43 42
3 43 45 44
3 45 47 46
3 47 49 48
3 49 51 50
3 51 53 52
3 53 55 54
3 55 57 56
3 57 59 58
3 59 63 60
3 1 61 4
3 61 63 4
3 63 59 4
3 59 57 4
3 57 55 4
3 55 53 4
3 53 51 4
3 51 49 4
3 49 47 4
3 47 45 4
3 45 43 4
3 43 41 4
3 41 39 4
3 39 37 4
3 37 35 4
3 35 32 4
3 32 30 4
3 30 28 4
3 28 26 4
3 26 24 4
3 24 22 4
3 22 20 4
3 20 18 4
3 18 16 4
3 16 14 4
3 14 12 4
3 12 10 4
3 10 8 6
3 4 10 6
3 1 0 61
3 63 61 62
3 3 5 62
3 5 7 62
3 7 9 62
3 9 11 62
3 11 13 62
3 13 15 62
3 15 17 62
3 17 19 62
3 19 21 62
3 21 23 62
3 23 25 62
3 25 27 62
3 27 29 62
3 29 31 62
3 31 33 62
3 33 34 62
3 34 36 62
3 36 38 62
3 38 40 62
3 40 42 62
3 42 44 62
3 44 46 62
3 46 48 62
3 48 50 62
3 50 52 62
3 52 54 62
3 54 56 62
3 56 58 60
3 62 56 60
